<svg width="152" height="49" viewBox="0 0 152 49" fill="none" xmlns="http://www.w3.org/2000/svg">
<path d="M55.5879 9.53662H66.0305C70.071 9.56394 73.1015 11.2429 75.1217 14.5737C75.8452 15.693 76.3025 16.8669 76.4936 18.0954C76.6437 19.324 76.7188 21.4466 76.7188 24.4634C76.7188 27.6712 76.6028 29.91 76.3708 31.1795C76.2615 31.821 76.0977 32.3943 75.8793 32.8994C75.6473 33.3908 75.3674 33.9027 75.0399 34.4351C74.1662 35.841 72.9513 37.0013 71.3951 37.9159C69.8527 38.8988 67.9621 39.3901 65.7234 39.3901H55.5879V9.53662ZM60.1131 35.1108H65.5186C68.0576 35.1108 69.9004 34.2439 71.047 32.5104C71.5522 31.8687 71.8729 31.0565 72.0095 30.0738C72.1323 29.1045 72.1937 27.289 72.1937 24.6272C72.1937 22.0336 72.1323 20.1771 72.0095 19.0578C71.8457 17.9385 71.4566 17.0307 70.8423 16.3345C69.5865 14.601 67.8119 13.7614 65.5186 13.8161H60.1131V35.1108Z" fill="#282624"/>
<path d="M78.6484 24.4635C78.6484 20.9963 78.7508 18.6757 78.9556 17.5018C79.174 16.3279 79.5081 15.3791 79.9587 14.6556C80.6825 13.277 81.8429 12.0484 83.44 10.9701C85.0092 9.87801 86.9687 9.31833 89.3165 9.29102C91.6912 9.31833 93.6711 9.87801 95.2542 10.9701C96.8244 12.0484 97.9569 13.277 98.6528 14.6556C99.1582 15.3791 99.5067 16.3279 99.6971 17.5018C99.8746 18.6757 99.9638 20.9963 99.9638 24.4635C99.9638 27.8761 99.8746 30.1831 99.6971 31.3843C99.5067 32.5856 99.1582 33.5479 98.6528 34.2714C97.9569 35.6501 96.8244 36.8649 95.2542 37.916C93.6711 39.0081 91.6912 39.5814 89.3165 39.636C86.9687 39.5814 85.0092 39.0081 83.44 37.916C81.8429 36.8649 80.6825 35.6501 79.9587 34.2714C79.7404 33.8209 79.5425 33.3909 79.365 32.9814C79.2013 32.5583 79.0649 32.0259 78.9556 31.3843C78.7508 30.1831 78.6484 27.8761 78.6484 24.4635ZM83.1938 24.4635C83.1938 27.3984 83.3034 29.3845 83.5218 30.4219C83.7132 31.4593 84.1015 32.2989 84.6887 32.9405C85.1662 33.5547 85.7943 34.053 86.5729 34.4352C87.3366 34.8856 88.2517 35.1109 89.3165 35.1109C90.3951 35.1109 91.3298 34.8856 92.1214 34.4352C92.8721 34.053 93.4732 33.5547 93.9238 32.9405C94.51 32.2989 94.9133 31.4593 95.1316 30.4219C95.336 29.3845 95.4382 27.3984 95.4382 24.4635C95.4382 21.5286 95.336 19.5289 95.1316 18.4641C94.9133 17.454 94.51 16.6282 93.9238 15.9866C93.4732 15.3723 92.8721 14.8604 92.1214 14.451C91.3298 14.0551 90.3951 13.8434 89.3165 13.8162C88.2517 13.8434 87.3366 14.0551 86.5729 14.451C85.7943 14.8604 85.1662 15.3723 84.6887 15.9866C84.1015 16.6282 83.7132 17.454 83.5218 18.4641C83.3034 19.5289 83.1938 21.5286 83.1938 24.4635Z" fill="#282624"/>
<path d="M116.164 28.7019L111.844 15.6588H111.762L107.442 28.7019H116.164ZM117.455 32.715H106.131L103.838 39.3901H99.0469L109.899 9.53662H113.687L124.539 39.3901H119.768L117.455 32.715Z" fill="#282624"/>
<path d="M128.285 33.1041C128.709 33.6638 129.254 34.1211 129.923 34.476C130.592 34.8991 131.377 35.1108 132.279 35.1108C133.48 35.138 134.626 34.7217 135.718 33.8617C136.25 33.4385 136.667 32.8789 136.967 32.1827C137.281 31.5138 137.438 30.6743 137.438 29.6642V9.53662H141.963V30.1146C141.909 33.1178 140.926 35.4384 139.014 37.0764C137.117 38.7554 134.913 39.6086 132.401 39.6359C128.934 39.5539 126.347 38.2571 124.641 35.7454L128.285 33.1041Z" fill="#282624"/>
<path d="M30.0996 39.7091C38.4313 39.7091 45.1853 32.955 45.1853 24.6233V9.5376C36.8537 9.5376 30.0996 16.2917 30.0996 24.6233V39.7091Z" fill="#982E0A"/>
<path d="M19.6953 39.7091C28.027 39.7091 34.7811 32.955 34.7811 24.6233V9.5376C26.4495 9.5376 19.6953 16.2917 19.6953 24.6233V39.7091Z" fill="#FD5A3B"/>
<path d="M9.29102 39.7091C17.6227 39.7091 24.3767 32.955 24.3767 24.6234V9.5376C16.0452 9.5376 9.29102 16.2918 9.29102 24.6234V39.7091Z" fill="#FA9A87"/>
</svg>
