<svg width="106" height="66" viewBox="0 0 106 66" fill="none" xmlns="http://www.w3.org/2000/svg">
<g clip-path="url(#clip0_1369_4976)">
<path d="M36.7211 44.1224H29.9932V28.1781L25.6024 44.1224H20.9991L16.4666 28.1781V44.1224H11.0488V21.8271H20.5033L23.9381 33.66L27.1958 21.8271H36.7211V44.1224Z" fill="black"/>
<path d="M40.8633 21.8271H49.9991C53.8942 21.8271 56.5499 22.7965 58.7099 24.9692C60.7637 27.0416 61.8614 29.816 61.8614 32.9246C61.8614 39.5765 57.2227 44.1224 50.4594 44.1224H40.8633V21.8271ZM49.9991 39.0082C52.5132 39.0082 54.2837 36.5012 54.2837 32.9581C54.2837 31.3536 53.9296 29.8829 53.2214 28.7129C52.4778 27.4762 51.4155 26.8745 49.9991 26.8745H48.1223V39.0082H49.9991Z" fill="black"/>
<path d="M72.2713 44.1224H64.9414V21.8271H74.9979C78.6451 21.8271 80.6635 22.3285 82.3986 23.5987C84.0274 24.8355 85.0189 26.8076 85.0189 28.9469C85.0189 33.192 81.5841 36.0333 76.3789 36.0333H72.2713V44.1224ZM74.6084 31.2533C76.8038 31.2533 77.7953 30.5514 77.7953 29.0472C77.7953 27.6433 76.8038 26.9414 74.8208 26.9414H72.2005V31.2533H74.6084Z" fill="black"/>
<path d="M94.6868 44.1224H87.4277V21.8271H94.6868V44.1224Z" fill="black"/>
<path d="M1.7705 48.7688H0V14.7911L27.2657 0L54.7085 14.7409L53.0443 15.7604L27.2657 1.92201L1.7705 15.7604V48.7688Z" fill="black"/>
<path d="M4.4082 18.4845V16.5458L26.327 4.62939L26.3093 6.65168L4.4082 18.4845Z" fill="black"/>
<path d="M104.229 17.231H106V51.192L78.7339 65.9998L51.2734 51.2421L52.9554 50.2393L78.7339 64.061L104.229 50.2226V17.231Z" fill="black"/>
<path d="M101.591 47.5151V49.4371L79.6719 61.3536L79.6896 59.3313L101.591 47.5151Z" fill="black"/>
</g>
<defs>
<clipPath id="clip0_1369_4976">
<rect width="106" height="66" fill="white"/>
</clipPath>
</defs>
</svg>
